<svg fill="none" height="164" viewBox="0 0 478 164" width="478" xmlns="http://www.w3.org/2000/svg" xmlns:xlink="http://www.w3.org/1999/xlink"><clipPath id="a"><path d="m0 0h477.81v163.45h-477.81z"/></clipPath><g clip-path="url(#a)"><path d="m463.35 34.86c-9.78 5.29-18.02 12.25-28.22 16.81-8.23 3.68-17.91 8.6-27.48 5.44-2.17-.72-3.62-2.78-5.25-4.24-1.42-1.41-2.55-2.1-2.55-2.1-9.04-4.22-27.12 3.94-27.12 3.94-17.12 6.92-23.13 7.68-23.13 7.68-.06.01-.12.03-.18.04-.66.04-1.31.08-1.98.09-.89-.26-.81-1.04-.81-1.04l-.05-.12c.6-5.41 3.65-9.74 2.09-15.53-.91-3.27-3.37-5.69-6.16-7.93-.07-.07-.14-.14-.21-.21v.05c-2.06-1.64-4.29-3.19-6.21-4.93-8.8-.47-17.19 2.02-25.73 4.93-11.06 3.79-20.79 9.52-30.81 15.32-.31.18-.61.35-.92.53.28-.65.59-1.29.89-1.93 6.42-13.58 17.05-25.34 19.55-40.84.15-.99001-.07-1.89001-.56-2.72001.03-.01.06-.02.1-.02-.07-.07-.15-.12-.22-.18-1.94-3.02-7.31-5.24-10.86-7.9099998-8.57 5.7299998-16.89 11.6700098-25.05 17.7700098v-.07c-1.41 1.05-2.81 2.07-4.2 3.13v.02c-.13.1-.26.19-.4.29v.02c-.13.1-.27.19-.4.29v.03c-.13.1-.26.18-.39.28v.03c-.13.1-.26.19-.39.29v.03c-.13.1-.26.19-.39.28v.04c-.13.09-.26.18-.39.28 0 0 0 .02-.01.04-.13.09-.26.18-.38.27 0 0 0 .02-.01.05-.13.09-.26.17-.39.27 0 0-.01.02-.02.05-.12.09-.25.17-.38.26 0 0-.01.03-.02.05-.12.09-.25.17-.38.26 0 0-.02.03-.02.06-.13.09-.25.16-.38.26 0 0-.02.03-.03.06-.12.08-.25.16-.37.25-.01 0-.02.03-.03.07-.12.08-.25.16-.37.25-.01 0-.02.04-.03.07-.12.08-.24.15-.37.24-.01.01-.02.04-.04.08-.12.08-.24.15-.36.24-.01.01-.03.04-.04.08-.12.08-.24.14-.36.23-.01.01-.02.03-.04.06-.12.08-.24.16-.36.25-.01.01-.03.04-.04.07-.12.08-.24.16-.36.25-.01.01-.03.04-.04.07-.12.08-.24.16-.36.25-.02.01-.03.04-.04.08-.12.07-.23.15-.35.24-.02.01-.03.04-.05.08-.12.07-.23.15-.35.24-.02.01-.03.04-.05.08-.12.07-.23.15-.35.23-.02.02-.04.05-.05.09-.11.07-.23.14-.34.23-.02.02-.04.05-.06.09-.11.07-.22.14-.34.22-.02.02-.04.05-.06.1-.11.07-.22.14-.33.22-.02.02-.04.06-.07.1-.11.06-.22.13-.33.22-.02.02-.04.05-.07.1-.11.06-.22.13-.33.22-.03.02-.05.06-.07.11-.11.06-.21.13-.32.21-.03.02-.05.06-.08.11-.11.06-.21.12-.32.2-.03.02-.05.06-.08.11-.11.06-.21.12-.32.2-.03.02-.06.07-.08.12-.1.06-.21.12-.31.2-.03.03-.06.07-.09.13-.1.05-.2.11-.3.19-.03.03-.06.07-.09.13-.1.05-.2.11-.31.19-.03.03-.06.08-.1.13-.1.05-.2.11-.3.18-.04.03-.07.08-.1.14-.1.05-.2.1-.3.18-.04.03-.07.08-.11.14-.1.05-.19.1-.29.17-.03.03-.06.09-.09.14-.1.05-.2.1-.31.18-.03.03-.07.09-.1.15-.1.04-.2.1-.3.17-.04.03-.07.09-.1.15-.1.04-.2.09-.29.17-.04.03-.08.1-.11.16-.09.04-.19.09-.28.16-.04.03-.08.1-.11.16-.09.04-.19.09-.28.16-.04.03-.08.1-.12.17-.09.04-.18.08-.27.15-.04.04-.09.11-.13.17-.09.03-.18.08-.27.15-.05.04-.09.11-.13.18-.09.03-.17.07-.26.14-.05.04-.09.11-.14.18-.09.03-.17.07-.26.13-.05.04-.1.12-.15.19-.08.03-.17.06-.25.13-.05.04-.1.12-.15.2-.08.03-.16.06-.24.12-.05.05-.11.12-.16.2-.08.02-.16.06-.23.12-.06.05-.11.13-.17.21-.07.02-.15.05-.22.11-.06.05-.12.13-.17.21-.07.02-.15.05-.22.11-.06.05-.12.13-.18.22-.07.02-.14.04-.21.1-.07.05-.13.14-.19.23-.07.02-.13.04-.2.09s-.13.14-.19.22c-.07.02-.14.04-.21.09-.07.06-.14.15-.21.24-.06.01-.13.03-.19.08-.07.06-.14.15-.21.24-.06.01-.12.03-.18.08-.07.06-.15.15-.22.25-.06.01-.12.02-.18.07-.08.06-.15.15-.23.25-.06.01-.11.02-.17.06-.08.06-.16.16-.23.26-.05 0-.11.02-.17.06-.08.07-.16.16-.24.27-.05 0-.1.01-.15.05-.08.07-.17.16-.25.27-.05 0-.1.01-.15.05-.09.07-.17.17-.25.27-.05 0-.09 0-.14.04-.09.07-.17.17-.26.28-.05 0-.09 0-.14.04-.09.08-.18.17-.27.28-.04 0-.09 0-.13.03-.09.08-.18.18-.27.29-.04 0-.08 0-.12.03-.1.08-.19.18-.28.29-.04 0-.08 0-.11.03-.1.08-.19.18-.29.29-.04 0-.07 0-.11.02-.1.08-.2.18-.29.3-.03 0-.07 0-.1.02-.1.08-.2.19-.3.3-.03 0-.07-.01-.1.01-.1.09-.21.19-.31.31-.03 0-.06-.01-.09.01-.1.08-.19.18-.29.29-.04 0-.07 0-.11.02-.1.08-.2.19-.3.3-.03 0-.06 0-.1.02-.1.08-.2.18-.3.29-.03 0-.06 0-.09.02-.1.09-.21.19-.31.3-.03 0-.06 0-.09.02-.1.09-.21.19-.31.3-.03 0-.06 0-.09.01-.11.09-.21.19-.32.3-.03 0-.05 0-.08.01-.11.09-.21.19-.32.31-.03 0-.05 0-.08.01-.11.09-.22.2-.33.31-.02 0-.05 0-.07 0-.11.09-.22.2-.33.31-.02-.01-.05-.01-.07 0-.11.09-.22.2-.34.31-.02 0-.04-.01-.06 0-.11.09-.23.2-.34.31-.02 0-.04-.01-.06 0-.12.1-.23.2-.34.32-.02-.01-.04-.01-.06 0-.12.1-.23.2-.35.32-.02-.01-.03-.01-.05 0-.12.1-.23.21-.35.32-.01 0-.03 0-.04 0-.12.1-.24.21-.36.32-.01-.01-.03-.02-.04 0-.12.1-.23.22-.35.33-.02-.02-.03-.03-.05-.02-.12.1-.23.22-.35.33-.01-.02-.03-.03-.04-.02-.12.1-.24.22-.36.33-.01-.02-.03-.03-.04-.02-.12.1-.24.23-.36.34-.01-.02-.02-.03-.03-.02-.12.1-.24.23-.37.34-.01-.02-.02-.03-.03-.02-.12.1-.25.23-.37.34 0-.02-.02-.03-.03-.02-.12.1-.25.22-.37.34 0-.02-.02-.02-.02-.02-.13.1-.25.23-.38.34 0-.02-.01-.03-.02-.02-.13.11-.25.23-.38.34 0-.02-.01-.03-.02-.02-.13.11-.26.23-.38.34 0-.01 0-.02-.01-.02-.13.11-.26.22-.39.34 0-.01 0-.03-.01-.02-.13.11-.26.23-.39.34 0-.01 0-.02 0-.02-.13.11-.26.23-.39.34 0-.02 0-.03 0-.03-.13.11-.26.23-.4.34 0-.01 0-.02 0-.02-.13.11-.26.22-.39.33v-.02c-.13.11-.26.22-.4.33-1.23 1.01-2.46 2.02-3.69 3.05l-14.47 11.71c3.81 2.12 7.38 4.16 10.5 5.96l3.88-3.11c.16-.13.32-.26.48-.4v.01c.16-.13.32-.26.47-.39v.01c.16-.13.31-.26.47-.39v.01c.16-.13.31-.26.47-.39s.31-.26.47-.39c0 0 0 .02 0 .01.16-.13.31-.26.47-.39.16-.12.31-.25.47-.38s.31-.26.47-.39.31-.26.47-.38c.16-.13.31-.26.47-.39s.31-.26.47-.39.31-.26.47-.38c.15-.13.31-.26.47-.38.16-.13.31-.26.47-.38.16-.13.31-.26.47-.39s.31-.25.47-.38.31-.25.47-.38.31-.25.47-.38.31-.26.47-.38c.15-.13.31-.25.46-.38.16-.13.31-.25.47-.38s.31-.25.47-.38.31-.25.47-.38.31-.25.47-.38.31-.25.47-.38c.21-.17.42-.34.63-.51.1-.08.21-.17.31-.25.16-.13.31-.25.47-.38s.31-.25.47-.38.31-.25.47-.38.31-.25.47-.38c.2-.16.4-.32.6-.49.11-.09.23-.18.34-.27.12-.1.24-.2.37-.29.19-.15.39-.31.58-.46.49-.39.98-.79 1.47-1.17 0 0 0 0 .01-.01.31-.25.62-.5.94-.75 0 0 0 0 .01-.01.16-.12.31-.25.47-.37.31-.25.63-.5.94-.75 0 0 .02-.02.03-.03.05-.04.1-.08.15-.12.26-.2.51-.41.77-.61 0 0 .01-.01.02-.02.15-.12.3-.24.46-.36 0 0 .01-.02.02-.02.15-.12.3-.24.45-.36.16-.13.32-.25.48-.38 0 0 .01-.02.02-.02.15-.12.3-.24.46-.36 0 0 .01-.01.02-.02 0 0 .02-.01.02-.02.3-.24.6-.48.91-.72 0 0 .01-.02.02-.02.15-.12.3-.24.46-.36 0 0 0 0 .01-.01.15-.12.31-.25.46-.37 0 0 .01-.02.02-.02.15-.12.31-.24.46-.36 0 0 0 0 0-.01.16-.12.31-.25.47-.37 0 0 .02-.02.02-.03.15-.12.3-.24.45-.36 0 0 .01-.01.02-.02.15-.12.31-.24.46-.36.16-.12.31-.25.47-.37 0 0 .01-.02.02-.03.15-.12.3-.24.45-.35 0 0 0 0 0-.01.16-.12.31-.25.47-.37 0 0 .01-.02.02-.02.15-.12.31-.24.46-.36 0 0 .01-.02.02-.03.15-.12.3-.24.45-.35 0 0 .01-.02.02-.02.15-.12.3-.24.46-.36 0 0 .01-.02.02-.02.15-.12.31-.24.46-.36 0 0 .01-.02.02-.03.15-.12.3-.24.45-.35 0 0 0-.01.01-.02.16-.12.31-.24.46-.36 0 0 .01-.02.02-.03.15-.12.3-.24.46-.36 0 0 .01-.02.02-.03.15-.12.3-.23.45-.35 0 0 0-.01.01-.02.16-.12.31-.24.47-.36 0 0 0-.02.01-.02.15-.12.31-.24.46-.36 0 0 0-.02.01-.02.16-.12.31-.24.46-.36 0 0 .01-.02.02-.03.15-.12.31-.24.46-.35 0 0 0-.02.02-.02.15-.12.31-.24.46-.36 0 0 0-.02.02-.02.15-.12.31-.24.46-.36 0 0 0-.02.01-.02.15-.12.31-.24.46-.36 0 0 0-.02.01-.02.15-.12.31-.24.46-.36 0 0 0-.02.01-.02.15-.12.31-.24.46-.36 0 0 0-.02.01-.03.15-.12.31-.24.46-.35 0 0 0-.01 0-.02.16-.12.31-.24.47-.36 0 0 0-.02.01-.02.16-.12.31-.24.46-.36 0 0 .01-.02.02-.03.15-.12.31-.23.46-.35 0 0 0-.02.01-.02.15-.12.31-.24.46-.36v-.02c.16-.12.31-.24.47-.36v-.02c.16-.12.31-.24.47-.36 0 0 0-.02.01-.03.15-.12.31-.23.46-.35 0 0 0-.01 0-.02.16-.12.31-.24.47-.36v-.02c.16-.12.31-.24.47-.36v-.02c.16-.12.31-.24.47-.36 0 0 0-.02.01-.03.15-.12.31-.23.46-.35 0 0 0-.01 0-.02.16-.12.31-.24.47-.36 0 0 0-.02 0-.03.15-.12.31-.24.46-.35v-.02c.16-.12.31-.24.47-.36v-.02c.15-.12.31-.24.47-.36v-.02c.16-.12.31-.24.47-.36v-.02c.16-.12.31-.24.47-.36 0 0 0-.02 0-.03.16-.12.31-.24.47-.36 0 0 0-.02 0-.03.16-.12.31-.24.47-.36v-.02c.16-.12.31-.24.47-.36 0 0 0-.01 0-.02.16-.12.32-.24.48-.36 0 0 0-.02 0-.03.16-.12.31-.24.47-.36v-.02c.16-.12.32-.24.47-.36v-.02c.16-.12.32-.24.47-.36v-.02c.09-.07.18-.14.27-.21v.09c7.62-5.72 15.45-11.35 23.61-16.87-6 11.46-14.74 21.77-18.52 33.94-.89 2.88-1.51 5.87-1.74 9 3.36 3.79 6.68 7.52 10.04 11.26.96-.36 1.91-.75 2.85-1.15 13.22-5.66 24.76-15.1 38.82-19.8 7.84-2.63 15.63-5.36 23.87-5.63-.06 5.67-1.32 11.29-1.2 16.94.1 4.31 5.64 6.07 10.72 8.04 17.44-1.56 33.34-12.4 51.09-10.64 3.93.36 5.8 5.29 9.58 6.9 9 3.74 18.58-2.18 26.65-6.12 10.05-4.87 19.1-10.94 28.37-16.91l-4.4-5.29z" fill="#e40520"/><g fill="#30383b"><path d="m.4 97.56c-.3 0-.4.03-.4-.45v-21.11c0-.39.05-.42.4-.42h22.19c.41 0 .36.06.41.32.15 1.4.2 3.16 0 4.42-.05.29 0 .33-.41.33l-13.5-.07v4.39l8.82-.09c.46 0 .66.13.66.39.1 1.36.15 2.82 0 4.38-.05.29-.25.36-.71.36l-8.77-.07v7.17c0 .35-.05.45-.45.45z"/><path d="m37.08 86.72c-.87.05-.15.71-.15.71s7.45 7.37 9.17 9.48c.45.59.65.66 1.06.66h8.93c.55 0 .71-.23.1-.88-2.93-3.06-5.81-6.3-7.12-7.63 3.08-.94 4.69-3.06 4.69-6.04 0-4-4.14-7.44-11.91-7.44h-15.68c-.15 0-.4-.03-.4.29v21.39c0 .33 0 .3.4.3h8.29c.36 0 .41-.03.41-.3v-16.84h5.01c2.94 0 4.3 1.3 4.3 3.02 0 1.88-1.52 3.17-4.25 3.24l-2.84.04z"/><path d="m94.12 75.26c0-.36.3099-.32.5599-.22 7.2501 3.31 19.6101 10.67 19.6101 10.67v-9.73c0-.36 0-.39.4-.39h7.7c.51 0 .51.06.51.39.2 6.32.15 15.01 0 21.76 0 .39-.05.58-.61.33-7.65-3.66-19.55-10.7-19.55-10.7v9.92c0 .1933-.153.29-.46.29h-7.6501c-.35 0-.5099-.2-.5099-.33-.25-8.27-.2-13.42 0-21.99z"/><path d="m150.65 89.58 7.58 1.34c.51.07.55.23.46.42-2.28 3.58-7.93 6.76-15.82 6.76-10.77 0-17.95-5.26-17.95-11.54 0-6.71 7.78-11.67 17.7-11.67 8.34 0 13.45 2.92 15.72 6.27.25.39.05.52-.16.59l-7.53 1.9c-.31.07-.35 0-.46-.16-1.46-1.96-3.89-2.98-7.38-2.98-5.06 0-8.29 2.59-8.29 6.08 0 4.08 4.2 5.95 8.45 5.95 3.44 0 5.87-1.08 7.08-2.75.15-.16.2-.29.61-.23z"/><path d="m161.71 97.56c-.51 0-.56-.07-.56-.45v-21.2c0-.29-.05-.32.45-.32h22.86c.5 0 .55.03.55.42v3.97c0 .29-.15.46-.55.46l-14.46-.1v3.63h9.1c.46 0 .51.07.51.46v3.96c0 .39-.05.45-.51.45h-9.1v3.78l14.82-.1c.367 0 .55.14.55.42v4.19c0 .39-.05.45-.55.45h-23.1z"/><path d="m93.3702 97.11c-5.56-7.15-12.43-16.17-17.29-22.23-.05-.07-1.16-.1-1.21 0-4.6 5.51-11.93 15.08-17.19 22.23-.21.32-.15.45.25.45h8.4c.65 0 .76-.1.91-.36l7.73-11.11 2.87 3.96-2.87 4.3h5.98l2.15 2.95c.15.23.35.26.61.26h9.45c.45 0 .51-.03.2-.45z"/><path d="m267.62 83.17c-2.03-4.8-8.35-8.11-16.12-8.35h-.11c-9.49.29-16.82 5.16-16.82 11.73 0 1.51.41 2.96 1.17 4.29 2.33 4.07 7.99 7.04 15.62 7.31h.11c10.14-.36 16.83-5.48 16.83-11.6 0-1.19-.25-2.32-.7-3.38zm-15.96 9.3s-.51 0-.56 0c-3.72-.37-6.91-2.22-6.91-5.89 0-3.27 2.64-5.75 7.08-6.09h.36c4.43.34 7.09 2.82 7.09 6.09 0 3.69-3.3 5.53-7.05 5.89z"/><path d="m271.22 75.3c0-.35.3-.32.56-.23 7.25 3.31 19.61 10.67 19.61 10.67v-9.73c0-.36 0-.39.4-.39h7.7c.5 0 .5.07.5.39.2 6.32.15 15.01 0 21.76 0 .39-.05.58-.61.32-7.65-3.67-19.56-10.7-19.56-10.7v9.92c0 .1933-.15.29-.45.29h-7.65c-.35 0-.51-.2-.51-.32-.25-8.27-.2-13.42 0-21.99z"/><path d="m425.67 97.58c-.51 0-.55-.06-.55-.45v-21.21c0-.29-.05-.32.45-.32h22.85c.5 0 .56.03.56.42v3.97c0 .29-.15.46-.56.46l-14.46-.1v3.63h9.1c.46 0 .5.07.5.46v3.95c0 .39-.05.46-.5.46h-9.1v3.78l14.82-.1c.367 0 .55.14.55.42v4.18c0 .39-.05.45-.55.45z"/><path d="m357.45 97.13c-5.56-7.15-12.44-16.16-17.29-22.23-.05-.07-1.16-.09-1.21 0-4.6 5.51-11.93 15.08-17.19 22.23-.2.33-.15.46.25.46h8.39c.66 0 .76-.1.91-.36l7.74-11.11 2.87 3.96-2.87 4.29h5.99l2.15 2.95c.15.23.35.26.61.26h9.46c.45 0 .5-.03.2-.46z"/><path d="m392.34 75.27c0-.35.31-.32.56-.23 7.25 3.31 19.61 10.67 19.61 10.67v-9.73c0-.36 0-.39.4-.39h7.7c.5 0 .5.07.5.39.2 6.33.15 15.02 0 21.76 0 .39-.05.58-.61.32-7.65-3.67-19.56-10.7-19.56-10.7v9.92c0 .1933-.153.29-.46.29h-7.65c-.35 0-.51-.2-.51-.32-.25-8.27-.2-13.42 0-21.99z"/><path d="m214.6 83.99c3.76-2.2 11.02-6.43 16.52-8.94.25-.1.56-.13.56.23.2 8.56.25 13.72 0 21.98 0 .13-.15.33-.51.33h-7.65c-.307 0-.46-.0967-.46-.29v-9.92s-3.77 2.24-8.57 4.92c-.04.02-.27.04-.32.01-4.79-2.67-8.58-4.94-8.58-4.94v9.92c0 .1933-.153.29-.46.29h-7.65c-.35 0-.51-.2-.51-.33-.25-8.27-.2-13.42 0-21.98 0-.36.31-.33.56-.23 5.49 2.51 12.85 6.74 16.61 8.94 0 0 .12.15.46 0"/><path d="m309.95 81.46v15.84c0 .32 0 .29.4.29h8.29c.35 0 .4-.03.4-.29v-16.85h6.72c.26 0 .2-.12.2-.12v-4.59c0-.11-.19-.14-.19-.14h-22.52s-.26 0-.26.25v4.37s-.02.22.22.22h6.71v1.02z"/><path d="m389.65 86.38c.09 3.64-1.79 5.91-1.79 5.91-2.49 3.36-7.26 5.84-14.74 5.84-10.77 0-17.95-5.29-17.95-11.6 0-6.74 7.78-11.72 17.69-11.72 8.34 0 13.45 2.93 15.72 6.3.25.39.05.52-.15.59l-7.53 1.91c-.3.07-.35 0-.46-.17-1.46-1.97-3.89-2.99-7.38-2.99-5.06 0-8.29 2.6-8.29 6.11 0 4.11 4.2 5.98 8.44 5.98 2.51 0 4.49-.58 5.84-1.55l.19-.39-6.84.06c-.4 0-.35-.03-.4-.29-.2-1.13-.15-2.69 0-3.93.05-.23 0-.29.4-.29h17.22l.02.21z"/><path d="m476.8 77.42c-.19.12-2.76 2.54-2.76 2.54s-.37.28-.81.12c-3.05-1.08-5.41-1.51-7.99-1.51-2.98 0-4.85.83-4.85 2.33 0 1.14 1 1.72 4.02 2.22l4.4.73c5.96.98 8.98 3.52 8.98 6.79 0 4.48-5.96 7.43-15.01 7.43-3.98 0-8.19-.64-11.78-1.82-.14-.05-.5-.32-.22-.7.53-.72 1.92-2.42 2.09-2.65.21-.27.43-.23.53-.2 3.28 1.03 6.14 1.68 9.7 1.68 4.19 0 5.99-.67 5.99-2.64 0-1.43-1.51-2.32-4.76-2.86l-4.03-.67c-3.61-.6-5.86-1.46-7.16-2.79-1-.99-1.13-2.51-1.13-3.75 0-4.03 5.34-6.83 13.03-6.83 4.3 0 8.38.66 11.54 1.98.11.04.55.37.22.59z"/></g><path d="m148.8 109.14c-13.22 10.19-26.37 19.63-41.18 28.96-15.2499 9.56-30.1599 21.89-48.4799 21.15 3.87 6.12 13.15 4.21 19.55 2.62 12.94-3.22 23.6099-9.39 34.9899-16.5 12.56-7.81 24.03-15.53 35.4-23.72 2.31-1.67 4.62-3.34 6.93-5.05v-.06c1.42-1.05 2.84-2.11 4.27-3.18v-.05c.11-.08.22-.17.33-.25v-.05c.11-.08.22-.17.33-.26v-.04s.04-.03.06-.04c.05-.04.11-.09.16-.13.07-.05.14-.1.21-.16.03-.02.06-.05.09-.07.09-.07.18-.14.28-.21.04-.03.07-.07.11-.09.09-.07.17-.13.26-.19.02-.02.05-.04.07-.06.1-.08.2-.15.3-.22.05-.04.1-.08.15-.12.07-.05.14-.11.22-.16.06-.04.12-.1.18-.15s.12-.09.18-.14c.06-.04.11-.09.16-.14.07-.05.13-.1.2-.15.02-.02.05-.04.07-.06.1-.07.2-.15.29-.22.05-.04.09-.08.14-.12.07-.06.15-.11.22-.17.03-.02.05-.04.08-.07.1-.07.19-.15.29-.22.03-.02.05-.05.08-.07.1-.07.19-.14.29-.22.02-.02.04-.04.07-.06.1-.08.2-.15.3-.23.03-.02.06-.06.1-.08.09-.07.18-.14.27-.2.02-.02.05-.05.07-.06.1-.07.19-.15.29-.22.02-.01.04-.04.06-.05.1-.08.2-.15.3-.23.02-.02.04-.04.07-.06.1-.08.2-.15.3-.23.01 0 .03-.03.04-.04.11-.08.21-.17.32-.25.02-.02.04-.04.06-.06.1-.08.2-.15.3-.23.12-.09.24-.18.36-.27.01-.01.03-.03.04-.04.11-.08.21-.16.32-.25.01 0 .02-.02.03-.03.11-.08.22-.17.33-.25.02-.01.03-.03.05-.04.11-.08.21-.16.32-.24.01 0 .02-.03.04-.04.11-.08.22-.17.33-.25.01 0 .03-.03.04-.04.11-.08.22-.16.32-.25 0 0 0 0 .01-.01.12-.09.24-.18.36-.27 0 0 0 0 .01-.01.12-.09.23-.18.35-.27 0 0 0 0 .01-.01.12-.09.24-.18.36-.27 0 0 .02-.02.03-.03.11-.09.22-.17.33-.26.12-.09.24-.18.35-.27 0 0 .02-.02.02-.03.08-.07.17-.13.25-.2h-16.68c-2.13 1.68-4.26 3.33-6.38 4.97z" fill="#0072bb"/></g></svg>